<?xml version="1.0" encoding="UTF-8" standalone="no" ?>
<!DOCTYPE svg PUBLIC "-//W3C//DTD SVG 1.1//EN" "http://www.w3.org/Graphics/SVG/1.1/DTD/svg11.dtd">
<svg xmlns="http://www.w3.org/2000/svg" xmlns:xlink="http://www.w3.org/1999/xlink" version="1.1" width="512" height="512" viewBox="0 0 640 640" xml:space="preserve">
<desc>Created with Fabric.js 4.6.0</desc>
<defs>
</defs>
<g transform="matrix(1 0 0 1 320 320.41)" id="zrGQ4WOYVF8EkkzRhdwXB"  >
<path style="stroke: rgb(0,0,0); stroke-width: 0; stroke-dasharray: none; stroke-linecap: round; stroke-dashoffset: 0; stroke-linejoin: miter; stroke-miterlimit: 4; fill: rgb(227,227,227); fill-rule: nonzero; opacity: 1;" vector-effect="non-scaling-stroke"  transform=" translate(-252.87, -180)" d="M 51.57087 -63.18554 C 51.57087 -76.00274 61.96128 -86.39314 74.77846 -86.39314 C 74.77846 -86.39314 252.95906 -86.39314 318 -86.39314 C 325.80622 -86.39314 323.58015 -12.73106 352.2953 14.184960000000004 C 369.77853 30.572790000000005 454.16913 40.919180000000004 454.16913 47.50001 C 454.16913 135.41124000000002 454.16913 423.18556 454.16913 423.18556 C 454.16913 436.00277 443.77872 446.39316 430.96154 446.39316 L 74.77846 446.39316 C 61.96124 446.39316 51.57087 436.00277 51.57087 423.18556 z" stroke-linecap="round" />
</g>
<g transform="matrix(1.68 0 0 1.66 453.66 120.95)" id="VlOYyw0WsYuHmECTuOnSt"  >
<path style="stroke: rgb(0,0,0); stroke-width: 0; stroke-dasharray: none; stroke-linecap: butt; stroke-dashoffset: 0; stroke-linejoin: miter; stroke-miterlimit: 4; fill: rgb(158,158,158); fill-rule: nonzero; opacity: 1;" vector-effect="non-scaling-stroke"  transform=" translate(0, 0)" d="M -40 -40 L 40 40 L -26.501909999999995 40 L -26.501909999999995 40 C -33.9567 40 -39.99999999999999 33.88389 -39.99999999999999 26.33929 z" stroke-linecap="round" />
</g>
</svg>