<?xml version="1.0" encoding="UTF-8"?>
<svg version="1.1" xmlns="http://www.w3.org/2000/svg" width="225" height="225">
<path d="M0 0 C6.93 0 13.86 0 21 0 C19.875 9 19.875 9 19 13 C19.76957031 12.74476562 19.76957031 12.74476562 20.5546875 12.484375 C24.87436929 11.11720299 29.14456047 9.94212044 33.6015625 9.12109375 C34.81030029 8.8885791 34.81030029 8.8885791 36.04345703 8.65136719 C37.66799289 8.34460729 39.29682062 8.05968837 40.92919922 7.79785156 C41.68475098 7.65186523 42.44030273 7.50587891 43.21875 7.35546875 C44.2387207 7.17987427 44.2387207 7.17987427 45.27929688 7.00073242 C47.80628498 5.78479685 47.80628498 5.78479685 49 0 C58.57 0 68.14 0 78 0 C76 3 76 3 73 4 C74.02738281 4.14695312 75.05476563 4.29390625 76.11328125 4.4453125 C86.11831768 6.01117089 94.91821111 8.17230056 102.5 15.375 C105.58593568 20.77538744 107.81069008 25.47657511 106.6328125 31.8671875 C103.18493913 43.48779775 95.10996417 52.5527955 85 59 C82.73046875 59.69140625 82.73046875 59.69140625 81 60 C81.495 59.01 81.495 59.01 82 58 C82.66 58 83.32 58 84 58 C84.226875 57.4225 84.45375 56.845 84.6875 56.25 C86 54 86 54 88.1875 52.375 C93.50334629 47.88606313 98.61288439 41.39788723 99.23828125 34.29296875 C99.34995135 29.62045671 99.41098736 25.96492686 97.5625 21.625 C90.45319453 14.34229684 83.02565973 11.48047307 73 10 C71.35 10 69.7 10 68 10 C66.68 15.94 65.36 21.88 64 28 C65.49273437 27.97679688 66.98546875 27.95359375 68.5234375 27.9296875 C70.47395335 27.91093254 72.42447458 27.89273205 74.375 27.875 C75.35984375 27.85824219 76.3446875 27.84148437 77.359375 27.82421875 C78.30039063 27.81777344 79.24140625 27.81132813 80.2109375 27.8046875 C81.51490479 27.78897705 81.51490479 27.78897705 82.84521484 27.77294922 C85 28 85 28 87 30 C86.78263221 37.16035077 84.30245022 55.69754978 79 61 C77.5112814 61.08669432 76.018555 61.10703494 74.52734375 61.09765625 C73.62822266 61.09443359 72.72910156 61.09121094 71.80273438 61.08789062 C70.38444336 61.07532227 70.38444336 61.07532227 68.9375 61.0625 C67.5134082 61.05573242 67.5134082 61.05573242 66.06054688 61.04882812 C63.70696935 61.0370011 61.35351523 61.02052025 59 61 C57.82346457 57.4703937 58.25909467 56.26981869 59.25 52.74609375 C59.5284375 51.72708984 59.806875 50.70808594 60.09375 49.65820312 C60.3928125 48.59537109 60.691875 47.53253906 61 46.4375 C61.58979004 44.33383079 62.17345185 42.22843062 62.75 40.12109375 C63.01296875 39.1870874 63.2759375 38.25308105 63.546875 37.29077148 C64.24636852 34.98251021 64.24636852 34.98251021 63 33 C52.11 32.505 52.11 32.505 41 32 C42.14512067 24.42458635 43.58685931 17.27159727 46 10 C36.26305112 12.11020784 26.58408173 14.26169093 17 17 C16.34 20.96 15.68 24.92 15 29 C22.59 29 30.18 29 38 29 C37.22818031 35.94637723 36.18385636 42.21099825 34.5625 48.9375 C34.34529297 49.88173828 34.12808594 50.82597656 33.90429688 51.79882812 C33.58235352 53.14944336 33.58235352 53.14944336 33.25390625 54.52734375 C33.06127197 55.33937256 32.8686377 56.15140137 32.67016602 56.98803711 C32 59 32 59 30 61 C27.20263672 61.22705078 27.20263672 61.22705078 23.6796875 61.1953125 C21.79443359 61.18564453 21.79443359 61.18564453 19.87109375 61.17578125 C17.89302734 61.15064453 17.89302734 61.15064453 15.875 61.125 C14.53516279 61.11496983 13.19531848 61.10584404 11.85546875 61.09765625 C8.57013427 61.07402075 5.28515535 61.04107234 2 61 C2 60.34 2 59.68 2 59 C2.54342041 58.81493896 3.08684082 58.62987793 3.64672852 58.43920898 C8.09698486 56.63847801 8.09698486 56.63847801 11.11279297 53.06298828 C11.87438651 50.74240408 12.44010253 48.45346465 12.9375 46.0625 C13.13150391 45.26392578 13.32550781 44.46535156 13.52539062 43.64257812 C14.4495305 39.78293511 15.25198217 35.89756659 16 32 C6.20885772 31.5670385 6.20885772 31.5670385 -2.85546875 34.6484375 C-9.09320528 40.59629643 -15.15601303 49.51697153 -15.5625 58.375 C-14.65965148 64.19335715 -12.73041231 68.07975956 -8.02734375 71.765625 C-3.64286932 74.43517013 1.21545362 76.18063366 6 78 C6.103125 76.824375 6.20625 75.64875 6.3125 74.4375 C6.70950915 69.91159574 8.02102157 67.61761633 10 63 C17.59 62.67 25.18 62.34 33 62 C33.40992188 60.30230469 33.81984375 58.60460937 34.2421875 56.85546875 C34.78614732 54.63273636 35.3304352 52.41008424 35.875 50.1875 C36.14441406 49.06794922 36.41382813 47.94839844 36.69140625 46.79492188 C36.95566406 45.72177734 37.21992187 44.64863281 37.4921875 43.54296875 C37.73308105 42.55321045 37.97397461 41.56345215 38.22216797 40.54370117 C39 38 39 38 41 35 C42.97119141 34.65942383 42.97119141 34.65942383 45.3515625 34.70703125 C46.62773437 34.7215332 46.62773437 34.7215332 47.9296875 34.73632812 C48.81914063 34.76146484 49.70859375 34.78660156 50.625 34.8125 C51.97078125 34.83280273 51.97078125 34.83280273 53.34375 34.85351562 C55.56309789 34.88893075 57.78125188 34.93831539 60 35 C61.25295721 38.59616383 60.74165234 41.09353182 59.85546875 44.75390625 C59.59056641 45.85541016 59.32566406 46.95691406 59.05273438 48.09179688 C58.76720703 49.23712891 58.48167969 50.38246094 58.1875 51.5625 C57.91357422 52.71169922 57.63964844 53.86089844 57.35742188 55.04492188 C55.26800884 63.59798674 55.26800884 63.59798674 53 67 C50.56982422 67.34057617 50.56982422 67.34057617 47.5546875 67.29296875 C46.47832031 67.28330078 45.40195313 67.27363281 44.29296875 67.26367188 C43.16503906 67.23853516 42.03710938 67.21339844 40.875 67.1875 C39.73933594 67.17396484 38.60367188 67.16042969 37.43359375 67.14648438 C34.62219515 67.11104658 31.81103925 67.05723836 29 67 C28.505 72.94 28.505 72.94 28 79 C45.99183977 76.71148264 61.69116513 73.09697972 77.93383789 64.85888672 C78.69688232 64.47490723 79.45992676 64.09092773 80.24609375 63.6953125 C80.92341553 63.34484863 81.6007373 62.99438477 82.29858398 62.63330078 C82.86005127 62.42431152 83.42151855 62.21532227 84 62 C84.66 62.33 85.32 62.66 86 63 C68.12162823 74.97073588 46.74897228 83.4512874 25 84 C24.814375 85.85625 24.814375 85.85625 24.625 87.75 C24.2793272 91.20672799 23.65554702 92.68890596 22 96 C15.73 96 9.46 96 3 96 C1.97377677 90.86888386 2.3959313 88.81220611 4 84 C3.23816406 83.84144531 2.47632812 83.68289062 1.69140625 83.51953125 C-7.67774565 81.40240704 -16.33968996 78.73985058 -21.9609375 70.43359375 C-24.40348186 64.71289774 -24.1099105 58.36144323 -22.1796875 52.515625 C-18.34030705 44.94425935 -11.92216155 37.86591855 -5 33 C-5.66 32.67 -6.32 32.34 -7 32 C-6.3850045 25.17215229 -5.13614818 18.71461103 -3.5 12.0625 C-3.27441406 11.11826172 -3.04882812 10.17402344 -2.81640625 9.20117188 C-1.14358313 2.28716626 -1.14358313 2.28716626 0 0 Z " fill="#1A98E0" transform="translate(71,65)"/>
<path d="M0 0 C9.57 0 19.14 0 29 0 C27 3 27 3 24 4 C25.02738281 4.14695312 26.05476563 4.29390625 27.11328125 4.4453125 C37.11831768 6.01117089 45.91821111 8.17230056 53.5 15.375 C56.58593568 20.77538744 58.81069008 25.47657511 57.6328125 31.8671875 C54.18493913 43.48779775 46.10996417 52.5527955 36 59 C33.73046875 59.69140625 33.73046875 59.69140625 32 60 C32.495 59.01 32.495 59.01 33 58 C33.66 58 34.32 58 35 58 C35.226875 57.4225 35.45375 56.845 35.6875 56.25 C37 54 37 54 39.1875 52.375 C44.50334629 47.88606313 49.61288439 41.39788723 50.23828125 34.29296875 C50.34995135 29.62045671 50.41098736 25.96492686 48.5625 21.625 C41.45319453 14.34229684 34.02565973 11.48047307 24 10 C22.35 10 20.7 10 19 10 C17.68 15.94 16.36 21.88 15 28 C16.49273437 27.97679688 17.98546875 27.95359375 19.5234375 27.9296875 C21.47395335 27.91093254 23.42447458 27.89273205 25.375 27.875 C26.35984375 27.85824219 27.3446875 27.84148437 28.359375 27.82421875 C29.77089844 27.81455078 29.77089844 27.81455078 31.2109375 27.8046875 C32.51490479 27.78897705 32.51490479 27.78897705 33.84521484 27.77294922 C36 28 36 28 38 30 C37.78263221 37.16035077 35.30245022 55.69754978 30 61 C28.5112814 61.08669432 27.018555 61.10703494 25.52734375 61.09765625 C24.62822266 61.09443359 23.72910156 61.09121094 22.80273438 61.08789062 C21.38444336 61.07532227 21.38444336 61.07532227 19.9375 61.0625 C18.98810547 61.05798828 18.03871094 61.05347656 17.06054688 61.04882812 C14.70696935 61.0370011 12.35351523 61.02052025 10 61 C8.82346457 57.4703937 9.25909467 56.26981869 10.25 52.74609375 C10.5284375 51.72708984 10.806875 50.70808594 11.09375 49.65820312 C11.3928125 48.59537109 11.691875 47.53253906 12 46.4375 C12.58979004 44.33383079 13.17345185 42.22843062 13.75 40.12109375 C14.01296875 39.1870874 14.2759375 38.25308105 14.546875 37.29077148 C15.24636852 34.98251021 15.24636852 34.98251021 14 33 C3.11 32.505 3.11 32.505 -8 32 C-6.85487933 24.42458635 -5.41314069 17.27159727 -3 10 C-12.73202452 12.10914063 -22.43259496 14.21828752 -32 17 C-31.505 15.515 -31.505 15.515 -31 14 C-28.20075466 12.82215908 -25.51214395 11.8429425 -22.625 10.9375 C-21.81240723 10.67437012 -20.99981445 10.41124023 -20.16259766 10.14013672 C-14.18422973 8.25179378 -8.22838603 6.79569689 -2 6 C-1.34 4.02 -0.68 2.04 0 0 Z " fill="#FD9703" transform="translate(120,65)"/>
<path d="M0 0 C1.97119141 -0.34057617 1.97119141 -0.34057617 4.3515625 -0.29296875 C5.62773438 -0.2784668 5.62773438 -0.2784668 6.9296875 -0.26367188 C7.81914063 -0.23853516 8.70859375 -0.21339844 9.625 -0.1875 C10.97078125 -0.16719727 10.97078125 -0.16719727 12.34375 -0.14648438 C14.56309789 -0.11106925 16.78125188 -0.06168461 19 0 C20.25295721 3.59616383 19.74165234 6.09353182 18.85546875 9.75390625 C18.59056641 10.85541016 18.32566406 11.95691406 18.05273438 13.09179688 C17.76720703 14.23712891 17.48167969 15.38246094 17.1875 16.5625 C16.91357422 17.71169922 16.63964844 18.86089844 16.35742188 20.04492188 C14.26800884 28.59798674 14.26800884 28.59798674 12 32 C9.56982422 32.34057617 9.56982422 32.34057617 6.5546875 32.29296875 C5.47832031 32.28330078 4.40195313 32.27363281 3.29296875 32.26367188 C2.16503906 32.23853516 1.03710938 32.21339844 -0.125 32.1875 C-1.26066406 32.17396484 -2.39632812 32.16042969 -3.56640625 32.14648438 C-6.37780485 32.11104658 -9.18896075 32.05723836 -12 32 C-12.33 35.96 -12.66 39.92 -13 44 C4.99183977 41.71148264 20.69116513 38.09697972 36.93383789 29.85888672 C37.69688232 29.47490723 38.45992676 29.09092773 39.24609375 28.6953125 C39.92341553 28.34484863 40.6007373 27.99438477 41.29858398 27.63330078 C41.86005127 27.42431152 42.42151855 27.21532227 43 27 C43.66 27.33 44.32 27.66 45 28 C27.12162823 39.97073588 5.74897228 48.4512874 -16 49 C-16.12375 50.2375 -16.2475 51.475 -16.375 52.75 C-16.7206728 56.20672799 -17.34445298 57.68890596 -19 61 C-25.27 61 -31.54 61 -38 61 C-38.94250555 56.28747224 -38.93738683 54.59405926 -37.85546875 50.1484375 C-37.59056641 49.05015625 -37.32566406 47.951875 -37.05273438 46.8203125 C-36.62444336 45.11488281 -36.62444336 45.11488281 -36.1875 43.375 C-35.91357422 42.2303125 -35.63964844 41.085625 -35.35742188 39.90625 C-33.27334661 31.41001992 -33.27334661 31.41001992 -31 28 C-28.66162109 27.56762695 -28.66162109 27.56762695 -25.7734375 27.48828125 C-24.2265625 27.43510742 -24.2265625 27.43510742 -22.6484375 27.38085938 C-21.56820312 27.35830078 -20.48796875 27.33574219 -19.375 27.3125 C-17.74304688 27.26125977 -17.74304688 27.26125977 -16.078125 27.20898438 C-13.38551937 27.12631666 -10.69324709 27.05722913 -8 27 C-7.82871582 26.2886792 -7.65743164 25.5773584 -7.48095703 24.84448242 C-6.70180271 21.62396034 -5.91351522 18.40574234 -5.125 15.1875 C-4.85558594 14.06794922 -4.58617187 12.94839844 -4.30859375 11.79492188 C-4.04433594 10.72177734 -3.78007813 9.64863281 -3.5078125 8.54296875 C-3.26691895 7.55321045 -3.02602539 6.56345215 -2.77783203 5.54370117 C-2 3 -2 3 0 0 Z " fill="#50BE02" transform="translate(112,100)"/>
<path d="M0 0 C0.66 0 1.32 0 2 0 C1.47952417 4.38686775 0.88099868 8.67025202 0 13 C0.62567871 12.98952637 1.25135742 12.97905273 1.89599609 12.96826172 C4.7222901 12.92676809 7.54852011 12.90069527 10.375 12.875 C11.35984375 12.85824219 12.3446875 12.84148437 13.359375 12.82421875 C14.77089844 12.81455078 14.77089844 12.81455078 16.2109375 12.8046875 C17.51490479 12.78897705 17.51490479 12.78897705 18.84521484 12.77294922 C21 13 21 13 23 15 C22.78263221 22.16035077 20.30245022 40.69754978 15 46 C13.5112814 46.08669432 12.018555 46.10703494 10.52734375 46.09765625 C9.62822266 46.09443359 8.72910156 46.09121094 7.80273438 46.08789062 C6.38444336 46.07532227 6.38444336 46.07532227 4.9375 46.0625 C3.98810547 46.05798828 3.03871094 46.05347656 2.06054688 46.04882812 C-0.29303065 46.0370011 -2.64648477 46.02052025 -5 46 C-6.17653543 42.4703937 -5.74090533 41.26981869 -4.75 37.74609375 C-4.4715625 36.72708984 -4.193125 35.70808594 -3.90625 34.65820312 C-3.6071875 33.59537109 -3.308125 32.53253906 -3 31.4375 C-2.41020996 29.33383079 -1.82654815 27.22843062 -1.25 25.12109375 C-0.98703125 24.1870874 -0.7240625 23.25308105 -0.453125 22.29077148 C0.24636852 19.98251021 0.24636852 19.98251021 -1 18 C-1.66 17.34 -2.32 16.68 -3 16 C-2.34 16 -1.68 16 -1 16 C-1.20625 15.030625 -1.4125 14.06125 -1.625 13.0625 C-2.31165288 8.47227255 -1.21239679 4.41873542 0 0 Z " fill="#FAB60C" transform="translate(135,80)"/>
<path d="M0 0 C5.61 0 11.22 0 17 0 C17.34631802 7.61899635 16.98171451 14.32755058 15.125 21.6875 C14.95129883 22.38230469 14.77759766 23.07710937 14.59863281 23.79296875 C13.78129085 26.83873842 13.26577931 28.73422069 11 31 C8.20263672 31.22705078 8.20263672 31.22705078 4.6796875 31.1953125 C2.79443359 31.18564453 2.79443359 31.18564453 0.87109375 31.17578125 C-0.44761719 31.15902344 -1.76632813 31.14226562 -3.125 31.125 C-4.46483721 31.11496983 -5.80468152 31.10584404 -7.14453125 31.09765625 C-10.42986573 31.07402075 -13.71484465 31.04107234 -17 31 C-17 30.34 -17 29.68 -17 29 C-16.45730469 28.83886719 -15.91460937 28.67773438 -15.35546875 28.51171875 C-12.87247933 27.56773538 -11.0646704 26.6900162 -9 25 C-7.42116782 21.4257708 -6.63646607 17.84531582 -6 14 C-5.34 14 -4.68 14 -4 14 C-3.9175 13.46375 -3.835 12.9275 -3.75 12.375 C-2.73623902 9.1647569 -0.92839451 6.73707608 1 4 C0.34 3.67 -0.32 3.34 -1 3 C-0.67 2.01 -0.34 1.02 0 0 Z " fill="#0595EB" transform="translate(90,95)"/>
<path d="M0 0 C1.97119141 -0.34057617 1.97119141 -0.34057617 4.3515625 -0.29296875 C5.20234375 -0.28330078 6.053125 -0.27363281 6.9296875 -0.26367188 C7.81914063 -0.23853516 8.70859375 -0.21339844 9.625 -0.1875 C10.97078125 -0.16719727 10.97078125 -0.16719727 12.34375 -0.14648438 C14.56309789 -0.11106925 16.78125188 -0.06168461 19 0 C19.93818736 3.33441016 19.90782987 5.36868051 19.0625 8.75 C18.86785156 9.54921875 18.67320312 10.3484375 18.47265625 11.171875 C18.31667969 11.77515625 18.16070312 12.3784375 18 13 C17.01 13 16.02 13 15 13 C15.061875 13.94875 15.12375 14.8975 15.1875 15.875 C15.20775553 20.81734906 13.70179163 25.39722678 12 30 C11 31 11 31 9.14233398 31.11352539 C8.35157471 31.10828857 7.56081543 31.10305176 6.74609375 31.09765625 C5.89208984 31.09443359 5.03808594 31.09121094 4.15820312 31.08789062 C3.26037109 31.07951172 2.36253906 31.07113281 1.4375 31.0625 C0.53580078 31.05798828 -0.36589844 31.05347656 -1.29492188 31.04882812 C-3.53001314 31.03700225 -5.76497437 31.0205222 -8 31 C-7.25973839 24.97809653 -5.96577275 19.1494732 -4.5625 13.25 C-4.34529297 12.30511719 -4.12808594 11.36023438 -3.90429688 10.38671875 C-3.68966797 9.48050781 -3.47503906 8.57429688 -3.25390625 7.640625 C-3.06127197 6.82110352 -2.8686377 6.00158203 -2.67016602 5.15722656 C-2 3 -2 3 0 0 Z " fill="#5BD306" transform="translate(112,100)"/>
<path d="M0 0 C5.61 0 11.22 0 17 0 C17 0.99 17 1.98 17 3 C16.01 3.33 15.02 3.66 14 4 C14.99 4.33 15.98 4.66 17 5 C17 5.99 17 6.98 17 8 C16.34 8 15.68 8 15 8 C15 9.32 15 10.64 15 12 C13.2421875 12.94401042 11.484375 13.88802083 9.7265625 14.83203125 C7.69497635 16.04763493 7.69497635 16.04763493 6 19 C9.465 18.505 9.465 18.505 13 18 C13 21.63 13 25.26 13 29 C6.4 29 -0.2 29 -7 29 C-6.690625 27.30875 -6.38125 25.6175 -6.0625 23.875 C-5.34321131 19.92146285 -4.6432582 15.96675889 -4 12 C-3.34 12 -2.68 12 -2 12 C-1.34 8.04 -0.68 4.08 0 0 Z " fill="#028AE7" transform="translate(72,67)"/>
<path d="M0 0 C0.66 0 1.32 0 2 0 C0.57142857 15.42857143 0.57142857 15.42857143 -3 19 C-4.78071246 19.08726223 -6.5648314 19.10699041 -8.34765625 19.09765625 C-9.42724609 19.09443359 -10.50683594 19.09121094 -11.61914062 19.08789062 C-12.75544922 19.07951172 -13.89175781 19.07113281 -15.0625 19.0625 C-16.20267578 19.05798828 -17.34285156 19.05347656 -18.51757812 19.04882812 C-21.34507418 19.0369976 -24.17254345 19.0190615 -27 19 C-27.33 22.96 -27.66 26.92 -28 31 C-10.00816023 28.71148264 5.69116513 25.09697972 21.93383789 16.85888672 C22.69688232 16.47490723 23.45992676 16.09092773 24.24609375 15.6953125 C24.92341553 15.34484863 25.6007373 14.99438477 26.29858398 14.63330078 C26.86005127 14.42431152 27.42151855 14.21532227 28 14 C28.99 14.495 28.99 14.495 30 15 C12.12162823 26.97073588 -9.25102772 35.4512874 -31 36 C-31.12375 37.2375 -31.2475 38.475 -31.375 39.75 C-31.7206728 43.20672799 -32.34445298 44.68890596 -34 48 C-40.27 48 -46.54 48 -53 48 C-53.94250555 43.28747224 -53.93738683 41.59405926 -52.85546875 37.1484375 C-52.59056641 36.05015625 -52.32566406 34.951875 -52.05273438 33.8203125 C-51.76720703 32.68335938 -51.48167969 31.54640625 -51.1875 30.375 C-50.91357422 29.2303125 -50.63964844 28.085625 -50.35742188 26.90625 C-48.27334661 18.41001992 -48.27334661 18.41001992 -46 15 C-43.66162109 14.65942383 -43.66162109 14.65942383 -40.7734375 14.70703125 C-39.2265625 14.7215332 -39.2265625 14.7215332 -37.6484375 14.73632812 C-36.56820312 14.76146484 -35.48796875 14.78660156 -34.375 14.8125 C-33.28703125 14.82603516 -32.1990625 14.83957031 -31.078125 14.85351562 C-28.38492591 14.88895246 -25.69270626 14.93835669 -23 15 C-23 15.99 -23 16.98 -23 18 C-16.73 17.67 -10.46 17.34 -4 17 C-2.20471574 11.30192387 -0.64540051 5.93768465 0 0 Z M-46 17 C-46.45375 19.31 -46.9075 21.62 -47.375 24 C-50.44957559 39.44957559 -50.44957559 39.44957559 -52 41 C-52 42.65 -52 44.3 -52 46 C-46.06 46 -40.12 46 -34 46 C-32.1515365 39.68153354 -32.1515365 39.68153354 -31.875 33.5625 C-31.90207031 32.26505859 -31.90207031 32.26505859 -31.9296875 30.94140625 C-31.95289062 30.30074219 -31.97609375 29.66007812 -32 29 C-31.34 29 -30.68 29 -30 29 C-30 27.02 -30 25.04 -30 23 C-29.34 23 -28.68 23 -28 23 C-28.66 21.02 -29.32 19.04 -30 17 C-35.28 17 -40.56 17 -46 17 Z " fill="#5AB830" transform="translate(127,113)"/>
<path d="M0 0 C10.6319996 -0.6018113 20.61063872 2.30362695 29 9 C32.54866194 12.94023843 34.85736182 17.42441134 35.18359375 22.8125 C34.26999532 33.69792813 27.38787719 42.12853276 19.5546875 49.2109375 C13.3972554 54.18971923 13.3972554 54.18971923 9 55 C9.33 54.34 9.66 53.68 10 53 C10.66 53 11.32 53 12 53 C12.226875 52.4225 12.45375 51.845 12.6875 51.25 C14 49 14 49 16.1875 47.375 C21.50334629 42.88606313 26.61288439 36.39788723 27.23828125 29.29296875 C27.34995135 24.62045671 27.41098736 20.96492686 25.5625 16.625 C22.10473855 13.0829029 18.22606564 10.54647545 14 8 C14.66 7.01 15.32 6.02 16 5 C16 4.34 16 3.68 16 3 C10.72 2.34 5.44 1.68 0 1 C0 0.67 0 0.34 0 0 Z " fill="#F29A29" transform="translate(143,70)"/>
<path d="M0 0 C6.93 0 13.86 0 21 0 C19.875 9 19.875 9 18.80859375 13.375 C18.60806396 14.20773438 18.40753418 15.04046875 18.20092773 15.8984375 C17.82303101 17.43371094 17.82303101 17.43371094 17.4375 19 C16.633125 22.3 15.82875 25.6 15 29 C22.59 29 30.18 29 38 29 C37.67 31.97 37.34 34.94 37 38 C36.67 38 36.34 38 36 38 C36 35.36 36 32.72 36 30 C27.585 30.495 27.585 30.495 19 31 C18.67 31.66 18.34 32.32 18 33 C19.485 33.495 19.485 33.495 21 34 C20.66226563 34.47050781 20.32453125 34.94101563 19.9765625 35.42578125 C19.53054687 36.04839844 19.08453125 36.67101562 18.625 37.3125 C18.18414062 37.92738281 17.74328125 38.54226562 17.2890625 39.17578125 C16.16589093 40.7652392 15.07958553 42.38062171 14 44 C14.55332902 39.96860286 15.18090299 35.98535436 16 32 C5.01551192 31.56432146 5.01551192 31.56432146 -4.5 36.0625 C-5.7375 37.5165625 -5.7375 37.5165625 -7 39 C-7.99 38.34 -8.98 37.68 -10 37 C-8.35 35.68 -6.7 34.36 -5 33 C-5.66 32.67 -6.32 32.34 -7 32 C-6.3850045 25.17215229 -5.13614818 18.71461103 -3.5 12.0625 C-3.27441406 11.11826172 -3.04882812 10.17402344 -2.81640625 9.20117188 C-1.14358313 2.28716626 -1.14358313 2.28716626 0 0 Z M1 2 C0.34 5.96 -0.32 9.92 -1 14 C-1.66 14 -2.32 14 -3 14 C-3.13277344 14.89203125 -3.26554687 15.7840625 -3.40234375 16.703125 C-3.57894531 17.87359375 -3.75554687 19.0440625 -3.9375 20.25 C-4.11152344 21.41015625 -4.28554687 22.5703125 -4.46484375 23.765625 C-5 27 -5 27 -6 31 C0.6 31 7.2 31 14 31 C14 27.37 14 23.74 14 20 C11.69 20.33 9.38 20.66 7 21 C9.80804268 18.03595495 12.18315774 15.55500981 16 14 C16 12.68 16 11.36 16 10 C16.66 10 17.32 10 18 10 C18 9.01 18 8.02 18 7 C17.01 6.67 16.02 6.34 15 6 C16.32 5.34 17.64 4.68 19 4 C18.67 3.34 18.34 2.68 18 2 C12.39 2 6.78 2 1 2 Z " fill="#2085CB" transform="translate(71,65)"/>
<path d="M0 0 C6.27 0 12.54 0 19 0 C19.937181 3.74872399 20.03326277 5.09754562 19.25 8.6875 C19.01023438 9.86892578 19.01023438 9.86892578 18.765625 11.07421875 C18.51296875 11.70972656 18.2603125 12.34523438 18 13 C13.66463974 14.44512009 9.24893783 14.39022195 4.71679688 14.60546875 C0.72857028 14.74031487 0.72857028 14.74031487 -3 16 C-3.0828413 14.64692538 -3.14000368 13.29227589 -3.1875 11.9375 C-3.22230469 11.18339844 -3.25710937 10.42929688 -3.29296875 9.65234375 C-3 7 -3 7 0 0 Z " fill="#67E30C" transform="translate(112,100)"/>
<path d="M0 0 C9.57 0 19.14 0 29 0 C27 3 27 3 24 4 C23.67 4.66 23.34 5.32 23 6 C23.969375 5.95875 24.93875 5.9175 25.9375 5.875 C30.33386059 5.88399051 34.89897598 6.3543101 39 8 C39.495 9.485 39.495 9.485 40 11 C39.67 11.33 39.34 11.66 39 12 C36.91974083 11.79538434 34.83998671 11.58184109 32.765625 11.32421875 C27.85634305 10.74869558 22.92679696 10.39180957 18 10 C16.74335022 7.09399739 16 5.20395416 16 2 C10.72 2 5.44 2 0 2 C-0.33 3.32 -0.66 4.64 -1 6 C-1.33 5.34 -1.66 4.68 -2 4 C-1.34 2.68 -0.68 1.36 0 0 Z " fill="#EF8F21" transform="translate(120,65)"/>
<path d="M0 0 C0.66 0.33 1.32 0.66 2 1 C-15.79577089 12.9154292 -35.63535655 19.99172352 -57 22 C-57.33 20.68 -57.66 19.36 -58 18 C-55.87553968 16.93776984 -54.37351068 16.71097365 -52.02734375 16.421875 C-35.40889875 14.24539372 -21.05809428 10.46261877 -6.06616211 2.85888672 C-5.30311768 2.47490723 -4.54007324 2.09092773 -3.75390625 1.6953125 C-3.07658447 1.34484863 -2.3992627 0.99438477 -1.70141602 0.63330078 C-1.13994873 0.42431152 -0.57848145 0.21532227 0 0 Z " fill="#329BD0" transform="translate(155,127)"/>
<path d="M0 0 C0.125 7.625 0.125 7.625 -1 11 C-0.34 11 0.32 11 1 11 C1.33 11.99 1.66 12.98 2 14 C2.825 14.268125 3.65 14.53625 4.5 14.8125 C9.16805009 16.39630271 13.18173084 18.87750433 17 22 C17 22.66 17 23.32 17 24 C18.65 24.33 20.3 24.66 22 25 C22 25.66 22 26.32 22 27 C15.375 27.125 15.375 27.125 12 26 C12 25.34 12 24.68 12 24 C11.01 24 10.02 24 9 24 C9 23.34 9 22.68 9 22 C7.02 22 5.04 22 3 22 C2.731875 21.195625 2.46375 20.39125 2.1875 19.5625 C1.795625 18.716875 1.40375 17.87125 1 17 C0.01 16.67 -0.98 16.34 -2 16 C-4.19459576 11.26429336 -4.42620009 7.11440113 -4 2 C-1 0 -1 0 0 0 Z " fill="#03A0F5" transform="translate(53,119)"/>
<path d="M0 0 C2.40201509 2.40201509 2.76509488 4.26658778 3.078125 7.6015625 C2.75606875 17.48868934 -3.39534087 25.1843294 -10 32 C-17.7852776 39.03908486 -17.7852776 39.03908486 -23 40 C-22.67 39.34 -22.34 38.68 -22 38 C-21.34 38 -20.68 38 -20 38 C-19.6596875 37.13375 -19.6596875 37.13375 -19.3125 36.25 C-18 34 -18 34 -15.8125 32.375 C-11.07497313 28.37442176 -6.97120644 22.91361931 -5 17 C-4.90564021 15.00179272 -4.87009699 13.00042797 -4.875 11 C-4.87242187 9.948125 -4.86984375 8.89625 -4.8671875 7.8125 C-4.87646365 4.91873122 -4.87646365 4.91873122 -6 2 C-5.34 2 -4.68 2 -4 2 C-4 2.66 -4 3.32 -4 4 C-3.34 4 -2.68 4 -2 4 C-2 7.96 -2 11.92 -2 16 C-1.34 16 -0.68 16 0 16 C0 10.72 0 5.44 0 0 Z " fill="#F2AC31" transform="translate(175,85)"/>
<path d="M0 0 C2.97 0.33 5.94 0.66 9 1 C9 1.99 9 2.98 9 4 C10.65 4.33 12.3 4.66 14 5 C14 7.31 14 9.62 14 12 C12.35 12 10.7 12 9 12 C9.99 11.01 10.98 10.02 12 9 C11.01 9 10.02 9 9 9 C8.01 10.485 8.01 10.485 7 12 C6.34 12 5.68 12 5 12 C5 11.34 5 10.68 5 10 C3.02 10.66 1.04 11.32 -1 12 C-1.2226746 10.56465159 -1.42761906 9.12654475 -1.625 7.6875 C-1.74101563 6.88699219 -1.85703125 6.08648437 -1.9765625 5.26171875 C-2 3 -2 3 0 0 Z " fill="#019CF6" transform="translate(87,112)"/>
<path d="M0 0 C1.32 0 2.64 0 4 0 C4 1.98 4 3.96 4 6 C5.98 5.34 7.96 4.68 10 4 C10 4.66 10 5.32 10 6 C10.86625 4.9790625 10.86625 4.9790625 11.75 3.9375 C12.4925 3.298125 13.235 2.65875 14 2 C16.25 2.25 16.25 2.25 18 3 C17.01 3.66 16.02 4.32 15 5 C16.32 5.33 17.64 5.66 19 6 C19 6.66 19 7.32 19 8 C9.76 8 0.52 8 -9 8 C-9 7.34 -9 6.68 -9 6 C-8.43410156 5.73445313 -7.86820312 5.46890625 -7.28515625 5.1953125 C-6.55167969 4.84210938 -5.81820312 4.48890625 -5.0625 4.125 C-4.33160156 3.77695313 -3.60070312 3.42890625 -2.84765625 3.0703125 C-0.83667541 2.1315023 -0.83667541 2.1315023 0 0 Z " fill="#079BEB" transform="translate(82,118)"/>
<path d="M0 0 C0.66 0 1.32 0 2 0 C1.67 4.29 1.34 8.58 1 13 C0.34 13 -0.32 13 -1 13 C-1.12375 14.2375 -1.2475 15.475 -1.375 16.75 C-1.7206728 20.20672799 -2.34445298 21.68890596 -4 25 C-10.27 25 -16.54 25 -23 25 C-24.18297127 19.08514363 -23.50563209 18.11148947 -21 13 C-20.34 13 -19.68 13 -19 13 C-19.99 16.3 -20.98 19.6 -22 23 C-16.06 23 -10.12 23 -4 23 C-3.34 17.39 -2.68 11.78 -2 6 C-1.34 6 -0.68 6 0 6 C0 4.02 0 2.04 0 0 Z " fill="#5BA628" transform="translate(97,136)"/>
<path d="M0 0 C0.66 0 1.32 0 2 0 C1.47694567 4.40860079 0.87251184 8.63744078 0 13 C6.93 13 13.86 13 21 13 C21 13.33 21 13.66 21 14 C12.09 14.99 12.09 14.99 3 16 C2.319375 18.8771875 2.319375 18.8771875 1.625 21.8125 C0.75552077 25.48802585 0.11044382 27.83433427 -2 31 C-1.48041715 26.62065881 -0.94324258 22.31196609 0 18 C-0.99 17.67 -1.98 17.34 -3 17 C-2.34 16.67 -1.68 16.34 -1 16 C-1.20625 15.030625 -1.4125 14.06125 -1.625 13.0625 C-2.31165288 8.47227255 -1.21239679 4.41873542 0 0 Z " fill="#ECAC35" transform="translate(135,80)"/>
<path d="M0 0 C1.98 0.99 1.98 0.99 4 2 C4 3.32 4 4.64 4 6 C5.98 6 7.96 6 10 6 C10 6.66 10 7.32 10 8 C10.99 8 11.98 8 13 8 C13 8.66 13 9.32 13 10 C16.3 10.33 19.6 10.66 23 11 C22.67 10.34 22.34 9.68 22 9 C19.97536745 8.34786708 19.97536745 8.34786708 18 8 C18 7.34 18 6.68 18 6 C19.98 6.66 21.96 7.32 24 8 C24 9.65 24 11.3 24 13 C18.58005201 14.80664933 13.14864814 12.02917309 8 10 C5.00792045 8.33526731 2.19708083 6.65508258 0 4 C0 2.68 0 1.36 0 0 Z " fill="#169EE2" transform="translate(52,135)"/>
<path d="M0 0 C0.33 0 0.66 0 1 0 C0.88556397 2.0839403 0.75804453 4.16716493 0.625 6.25 C0.55539063 7.41015625 0.48578125 8.5703125 0.4140625 9.765625 C0 13 0 13 -2 17 C5.26 17 12.52 17 20 17 C20 17.33 20 17.66 20 18 C18.38931641 18.00386719 18.38931641 18.00386719 16.74609375 18.0078125 C7.45844725 17.90752085 7.45844725 17.90752085 -0.5 22.0625 C-1.7375 23.5165625 -1.7375 23.5165625 -3 25 C-3.99 24.34 -4.98 23.68 -6 23 C-4.35 21.68 -2.7 20.36 -1 19 C-1.66 18.67 -2.32 18.34 -3 18 C-2.41509121 11.85845775 -1.45933748 5.99320151 0 0 Z " fill="#308CCA" transform="translate(67,79)"/>
<path d="M0 0 C-2 3 -2 3 -5.84375 3.984375 C-7.39358976 4.25287211 -8.94587012 4.50756595 -10.5 4.75 C-11.28503906 4.88792969 -12.07007812 5.02585938 -12.87890625 5.16796875 C-18.72027831 6.13986084 -18.72027831 6.13986084 -21 5 C-21 4.01 -21 3.02 -21 2 C-14.92195215 -1.03902392 -6.62306557 -0.12444173 0 0 Z " fill="#1EA1DB" transform="translate(118,143)"/>
<path d="M0 0 C1.83863505 1.11631414 3.67079723 2.24329627 5.5 3.375 C6.5209375 4.00148437 7.541875 4.62796875 8.59375 5.2734375 C9.3878125 5.84320313 10.181875 6.41296875 11 7 C11 7.66 11 8.32 11 9 C12.65 9.33 14.3 9.66 16 10 C16 10.66 16 11.32 16 12 C9.375 12.125 9.375 12.125 6 11 C6 10.34 6 9.68 6 9 C5.01 9 4.02 9 3 9 C2.67 7.02 2.34 5.04 2 3 C1.34 3 0.68 3 0 3 C0 2.01 0 1.02 0 0 Z " fill="#15A0E4" transform="translate(59,134)"/>
<path d="M0 0 C-2.66666667 5.33333333 -5.33333333 10.66666667 -8 16 C-8.33 16 -8.66 16 -9 16 C-9 14.02 -9 12.04 -9 10 C-9.66 10 -10.32 10 -11 10 C-11 10.99 -11 11.98 -11 13 C-11.66 13 -12.32 13 -13 13 C-11.22477343 6.68808332 -6.77603872 0 0 0 Z " fill="#1C91D8" transform="translate(64,103)"/>
<path d="M0 0 C1.32 0.33 2.64 0.66 4 1 C4 1.66 4 2.32 4 3 C4.66 3 5.32 3 6 3 C7.39599137 8.75846439 7.39599137 14.24153561 6 20 C5.34 20 4.68 20 4 20 C4 16.04 4 12.08 4 8 C3.34 8 2.68 8 2 8 C2 7.34 2 6.68 2 6 C1.34 6 0.68 6 0 6 C0 4.02 0 2.04 0 0 Z " fill="#FB9F06" transform="translate(169,81)"/>
<path d="M0 0 C0.33 0 0.66 0 1 0 C1 3.3 1 6.6 1 10 C7.27 10 13.54 10 20 10 C18 12 18 12 15.93701172 12.22705078 C14.69588623 12.21134033 14.69588623 12.21134033 13.4296875 12.1953125 C12.53378906 12.18886719 11.63789062 12.18242188 10.71484375 12.17578125 C9.77769531 12.15902344 8.84054688 12.14226562 7.875 12.125 C6.93011719 12.11597656 5.98523438 12.10695313 5.01171875 12.09765625 C2.67437173 12.07404668 0.33715451 12.03817494 -2 12 C-1.34 8.04 -0.68 4.08 0 0 Z " fill="#E9A72E" transform="translate(114,85)"/>
<path d="M0 0 C-0.33 0.99 -0.66 1.98 -1 3 C-3.44140625 3.87890625 -3.44140625 3.87890625 -6.5625 4.5625 C-7.64144531 4.80742188 -8.72039062 5.05234375 -9.83203125 5.3046875 C-10.87746094 5.53414063 -11.92289063 5.76359375 -13 6 C-14.58487726 6.38960564 -16.1685209 6.7843222 -17.75 7.1875 C-19.35875 7.5896875 -19.35875 7.5896875 -21 8 C-20 5 -20 5 -18.26586914 4.09277344 C-17.52973389 3.85075195 -16.79359863 3.60873047 -16.03515625 3.359375 C-15.23529297 3.09382813 -14.43542969 2.82828125 -13.61132812 2.5546875 C-12.77021484 2.28914063 -11.92910156 2.02359375 -11.0625 1.75 C-10.22525391 1.46898438 -9.38800781 1.18796875 -8.52539062 0.8984375 C-2.26962457 -1.13481229 -2.26962457 -1.13481229 0 0 Z " fill="#E1A24E" transform="translate(109,74)"/>
<path d="M0 0 C6.93 0 13.86 0 21 0 C20.67 1.32 20.34 2.64 20 4 C20 3.01 20 2.02 20 1 C13.73 1 7.46 1 1 1 C0.855625 2.77375 0.71125 4.5475 0.5625 6.375 C0.125 11.75 0.125 11.75 -1 14 C-1.66 14 -2.32 14 -3 14 C-2.4618756 8.79813078 -1.69880437 5.09641312 0 0 Z " fill="#3E87C0" transform="translate(71,65)"/>
<path d="M0 0 C0.33 0.99 0.66 1.98 1 3 C0.01 4.32 -0.98 5.64 -2 7 C4.93 7 11.86 7 19 7 C19 7.33 19 7.66 19 8 C9.76 8 0.52 8 -9 8 C-9 7.34 -9 6.68 -9 6 C-8.43410156 5.73445313 -7.86820312 5.46890625 -7.28515625 5.1953125 C-6.55167969 4.84210938 -5.81820312 4.48890625 -5.0625 4.125 C-4.33160156 3.77695313 -3.60070312 3.42890625 -2.84765625 3.0703125 C-0.83667541 2.1315023 -0.83667541 2.1315023 0 0 Z " fill="#339BD3" transform="translate(82,118)"/>
<path d="M0 0 C-0.33 4.62 -0.66 9.24 -1 14 C-1.66 14 -2.32 14 -3 14 C-2.125 6.25 -2.125 6.25 -1 4 C-5.455 4.495 -5.455 4.495 -10 5 C-9.67 4.01 -9.34 3.02 -9 2 C-3.21052632 0 -3.21052632 0 0 0 Z " fill="#ED992F" transform="translate(118,71)"/>
<path d="M0 0 C6.27 0 12.54 0 19 0 C19.96697501 3.86790003 19.979595 5.08162002 19.0625 8.75 C18.86785156 9.54921875 18.67320312 10.3484375 18.47265625 11.171875 C18.31667969 11.77515625 18.16070312 12.3784375 18 13 C17.67 13 17.34 13 17 13 C17 9.37 17 5.74 17 2 C11.72 1.67 6.44 1.34 1 1 C1 1.66 1 2.32 1 3 C0.34 3 -0.32 3 -1 3 C-0.67 2.01 -0.34 1.02 0 0 Z " fill="#7ED234" transform="translate(112,100)"/>
<path d="M0 0 C0.66 0 1.32 0 2 0 C1.67 4.29 1.34 8.58 1 13 C0.34 13 -0.32 13 -1 13 C-1.12375 14.258125 -1.2475 15.51625 -1.375 16.8125 C-1.69868059 20.10325263 -2.06604999 21.09907498 -4 24 C-3.34 18.06 -2.68 12.12 -2 6 C-1.34 6 -0.68 6 0 6 C0 4.02 0 2.04 0 0 Z " fill="#51AE37" transform="translate(97,136)"/>
<path d="M0 0 C0.66 1.32 1.32 2.64 2 4 C0.42353449 5.32074115 -1.16145531 6.63131224 -2.75 7.9375 C-3.63171875 8.66839844 -4.5134375 9.39929688 -5.421875 10.15234375 C-7.76330955 11.83037185 -9.19661127 12.58735166 -12 13 C-11.67 12.34 -11.34 11.68 -11 11 C-10.34 11 -9.68 11 -9 11 C-8.773125 10.4225 -8.54625 9.845 -8.3125 9.25 C-6.66800353 6.43086319 -4.5644533 4.98745131 -2 3 C-1.34 2.01 -0.68 1.02 0 0 Z " fill="#EED488" transform="translate(164,112)"/>
<path d="M0 0 C1.98 0.66 3.96 1.32 6 2 C6 3.65 6 5.3 6 7 C2.44757118 8.18414294 1.30169438 7.69535532 -2.1875 6.5625 C-3.08855469 6.27503906 -3.98960938 5.98757812 -4.91796875 5.69140625 C-5.94857422 5.34916016 -5.94857422 5.34916016 -7 5 C-7 4.67 -7 4.34 -7 4 C-3.04 4.33 0.92 4.66 5 5 C4.67 4.34 4.34 3.68 4 3 C1.97536745 2.34786708 1.97536745 2.34786708 0 2 C0 1.34 0 0.68 0 0 Z " fill="#36A9D4" transform="translate(70,141)"/>
<path d="M0 0 C1.65 0 3.3 0 5 0 C2.61820737 3.74281699 0.25524265 6.97727468 -3 10 C-3.66 9.67 -4.32 9.34 -5 9 C-3.35 6.03 -1.7 3.06 0 0 Z " fill="#F0BA43" transform="translate(169,105)"/>
<path d="M0 0 C0.66 0 1.32 0 2 0 C1.67 2.64 1.34 5.28 1 8 C0.01 8 -0.98 8 -2 8 C-2 8.99 -2 9.98 -2 11 C-5.96 11 -9.92 11 -14 11 C-14 10.67 -14 10.34 -14 10 C-11.03 10 -8.06 10 -5 10 C-4.67 9.01 -4.34 8.02 -4 7 C-3.01 6.67 -2.02 6.34 -1 6 C-0.67 4.02 -0.34 2.04 0 0 Z " fill="#F4C01A" transform="translate(151,114)"/>
<path d="M0 0 C5.28 0 10.56 0 16 0 C16 0.33 16 0.66 16 1 C15.28972656 1.04898438 14.57945313 1.09796875 13.84765625 1.1484375 C12.46900391 1.26058594 12.46900391 1.26058594 11.0625 1.375 C10.14597656 1.44460937 9.22945312 1.51421875 8.28515625 1.5859375 C7.53105469 1.72257813 6.77695313 1.85921875 6 2 C5.67 2.66 5.34 3.32 5 4 C2.4375 4.625 2.4375 4.625 0 5 C0 3.35 0 1.7 0 0 Z " fill="#53C70A" transform="translate(81,130)"/>
<path d="M0 0 C0.33 0 0.66 0 1 0 C2.125 7.75 2.125 7.75 1 10 C0.34 10 -0.32 10 -1 10 C-0.67 12.31 -0.34 14.62 0 17 C-1.32 16.67 -2.64 16.34 -4 16 C-2.68 10.72 -1.36 5.44 0 0 Z " fill="#64C32C" transform="translate(108,111)"/>
<path d="M0 0 C0.66 0.33 1.32 0.66 2 1 C-0.1217363 2.33878572 -2.24705188 3.67115476 -4.375 5 C-4.97828125 5.3815625 -5.5815625 5.763125 -6.203125 6.15625 C-10.7734375 9 -10.7734375 9 -13 9 C-12 6 -12 6 -9.34765625 4.359375 C-8.26355469 3.82828125 -7.17945313 3.2971875 -6.0625 2.75 C-4.98097656 2.20859375 -3.89945313 1.6671875 -2.78515625 1.109375 C-1.40650391 0.56023437 -1.40650391 0.56023437 0 0 Z " fill="#7BA5B5" transform="translate(155,127)"/>
<path d="M0 0 C0.33 0.99 0.66 1.98 1 3 C-6.28571429 6.42857143 -6.28571429 6.42857143 -11 6 C-11 5.34 -11 4.68 -11 4 C-7.37 2.68 -3.74 1.36 0 0 Z " fill="#3090BD" transform="translate(141,134)"/>
<path d="M0 0 C2.64 0.33 5.28 0.66 8 1 C8.33 1.99 8.66 2.98 9 4 C2.375 4.125 2.375 4.125 -1 3 C-0.67 2.01 -0.34 1.02 0 0 Z " fill="#04A5F7" transform="translate(66,142)"/>
<path d="M0 0 C6.6 0 13.2 0 20 0 C20 0.33 20 0.66 20 1 C17.41765641 1.36332974 14.83460218 1.71594867 12.25 2.0625 C11.52039063 2.16626953 10.79078125 2.27003906 10.0390625 2.37695312 C6.3892704 2.85806208 3.52327086 3.04532842 0 2 C0 1.34 0 0.68 0 0 Z " fill="#FBDAA0" transform="translate(136,93)"/>
<path d="M0 0 C0.66 0 1.32 0 2 0 C1.88490339 1.41750563 1.75746342 2.83401169 1.625 4.25 C1.55539063 5.03890625 1.48578125 5.8278125 1.4140625 6.640625 C0.98492887 9.085877 0.21399362 10.84836903 -1 13 C-1.33 13 -1.66 13 -2 13 C-2 10.69 -2 8.38 -2 6 C-1.34 6 -0.68 6 0 6 C0 4.02 0 2.04 0 0 Z " fill="#2094CB" transform="translate(103,112)"/>
<path d="M0 0 C0.93423645 3.01031744 1.04449911 3.86650268 0 7 C-1.65 7 -3.3 7 -5 7 C-4.67 5.02 -4.34 3.04 -4 1 C-2.02 1.495 -2.02 1.495 0 2 C0 1.34 0 0.68 0 0 Z " fill="#4AB706" transform="translate(93,152)"/>
<path d="M0 0 C-0.66 1.32 -1.32 2.64 -2 4 C-4.31 4 -6.62 4 -9 4 C-8.3125 2.0625 -8.3125 2.0625 -7 0 C-4.12060581 -0.93580311 -2.74490212 -1.37245106 0 0 Z " fill="#1E8EDE" transform="translate(87,82)"/>
<path d="M0 0 C-5.445 1.485 -5.445 1.485 -11 3 C-10.67 2.01 -10.34 1.02 -10 0 C-5.4904309 -2.10446558 -4.62748216 -2.31374108 0 0 Z " fill="#C1A174" transform="translate(99,79)"/>
<path d="M0 0 C0.99 0.33 1.98 0.66 3 1 C2.66226563 1.47050781 2.32453125 1.94101563 1.9765625 2.42578125 C1.30753906 3.35970703 1.30753906 3.35970703 0.625 4.3125 C0.18414062 4.92738281 -0.25671875 5.54226562 -0.7109375 6.17578125 C-1.83410907 7.7652392 -2.92041447 9.38062171 -4 11 C-3.67 8.69 -3.34 6.38 -3 4 C-2.01 3.67 -1.02 3.34 0 3 C0 2.01 0 1.02 0 0 Z " fill="#1991DA" transform="translate(89,98)"/>
<path d="M0 0 C3.63 0.33 7.26 0.66 11 1 C11 1.33 11 1.66 11 2 C8.36 2 5.72 2 3 2 C2.67 3.32 2.34 4.64 2 6 C2 5.34 2 4.68 2 4 C1.34 3.67 0.68 3.34 0 3 C0 2.01 0 1.02 0 0 Z " fill="#58B61F" transform="translate(97,130)"/>
<path d="M0 0 C0.33 0.66 0.66 1.32 1 2 C1.99 2.33 2.98 2.66 4 3 C2.68 4.65 1.36 6.3 0 8 C-0.66 6.02 -1.32 4.04 -2 2 C-1.34 1.34 -0.68 0.68 0 0 Z " fill="#2D97CF" transform="translate(57,106)"/>
<path d="M0 0 C0.66 0 1.32 0 2 0 C2.125 5.75 2.125 5.75 1 8 C0.34 8 -0.32 8 -1 8 C-0.67 5.36 -0.34 2.72 0 0 Z " fill="#1F87CB" transform="translate(69,71)"/>
<path d="M0 0 C0.66 0 1.32 0 2 0 C1.875 2.3125 1.875 2.3125 1 5 C-2.0625 6.8125 -2.0625 6.8125 -5 8 C-4.34 6.68 -3.68 5.36 -3 4 C-2.01 4 -1.02 4 0 4 C0 2.68 0 1.36 0 0 Z " fill="#0D83D5" transform="translate(87,75)"/>
<path d="M0 0 C2.64 0.33 5.28 0.66 8 1 C8 1.33 8 1.66 8 2 C3.545 2.495 3.545 2.495 -1 3 C-0.67 2.01 -0.34 1.02 0 0 Z " fill="#DF9333" transform="translate(109,73)"/>
</svg>
